<svg xmlns="http://www.w3.org/2000/svg" width="35.489" height="35" viewBox="0 0 35.489 35">
    <path id="home_1_" data-name="home (1)"
        d="M32.113,14.353l0,0L18.648.89a3.038,3.038,0,0,0-4.3,0L.9,14.343l-.014.014A3.037,3.037,0,0,0,2.9,19.533q.046,0,.094,0h.537v9.906A3.56,3.56,0,0,0,7.09,33h5.267a.967.967,0,0,0,.967-.967V24.266a1.624,1.624,0,0,1,1.622-1.622h3.107a1.624,1.624,0,0,1,1.622,1.622v7.767a.967.967,0,0,0,.967.967H25.91a3.56,3.56,0,0,0,3.556-3.555V19.538h.5a3.038,3.038,0,0,0,2.15-5.185Zm0,0"
        transform="translate(1.244 1.001)" fill="none" stroke="#8e9ab5" stroke-width="2" />
</svg>
