<svg id="profile" xmlns="http://www.w3.org/2000/svg" width="33" height="33" viewBox="0 0 33 33">
    <path id="Path_12" data-name="Path 12"
        d="M130.561,265.437q0-.1,0-.208a9.281,9.281,0,0,0-18.562.052q0,.107,0,.215a6.91,6.91,0,0,0,5.246,6.5,16.473,16.473,0,0,0,8.064,0A6.918,6.918,0,0,0,130.561,265.437Z"
        transform="translate(-104.781 -239.5)" fill="#286BCF" />
    <path id="Path_13" data-name="Path 13"
        d="M28.167,4.832a16.5,16.5,0,0,0-24.283,22.3q.438.518.918,1a.322.322,0,0,0,.543-.289A11.352,11.352,0,0,1,12.13,15.313a.321.321,0,0,0,.1-.527,6.188,6.188,0,1,1,8.539,0,.321.321,0,0,0,.1.527,11.351,11.351,0,0,1,6.785,12.533.322.322,0,0,0,.543.289q.479-.482.918-1a16.5,16.5,0,0,0-.95-22.3Z"
        transform="translate(0 0)" fill="#286BCF" />
    <ellipse id="Ellipse_5" data-name="Ellipse 5" cx="4.5" cy="4" rx="4.5" ry="4"
        transform="translate(12 6)" fill="#286BCF" />
</svg>
