<svg id="Group_30" data-name="Group 30" xmlns="http://www.w3.org/2000/svg" width="33" height="33"
    viewBox="0 0 33 33">
    <g id="profile-line" transform="translate(0 0)">
        <path id="Path_3" data-name="Path 3"
            d="M16.5,33a16.5,16.5,0,1,1,12.617-5.865,16.674,16.674,0,0,1-1.947,1.952A16.5,16.5,0,0,1,16.5,33Zm0-30.937A14.438,14.438,0,0,0,5.46,25.8a14.606,14.606,0,0,0,1.7,1.709,14.439,14.439,0,0,0,18.671,0,14.606,14.606,0,0,0,1.705-1.71A14.438,14.438,0,0,0,16.5,2.062Z"
            transform="translate(0 0)" fill="#8e9ab5" />
        <path id="Path_4" data-name="Path 4"
            d="M166.027,76.054a6.027,6.027,0,1,1,6.027-6.027A6.034,6.034,0,0,1,166.027,76.054Zm0-10.045a4.018,4.018,0,1,0,4.018,4.018A4.023,4.023,0,0,0,166.027,66.009Z"
            transform="translate(-149.527 -59.982)" fill="#8e9ab5" />
        <path id="Path_5" data-name="Path 5"
            d="M101.6,238.508a1.085,1.085,0,0,1-.255-.03,1,1,0,0,1-.758-1.219,8.762,8.762,0,0,0,.282-2.209,9.251,9.251,0,0,0-9.253-9.04H91.34a9.251,9.251,0,0,0-9.253,9.04,8.762,8.762,0,0,0,.282,2.209,1,1,0,0,1-.758,1.219,1.047,1.047,0,0,1-1.266-.73,10.75,10.75,0,0,1,2.963-10.46A11.627,11.627,0,0,1,91.315,224h.325a11.627,11.627,0,0,1,8.006,3.287,10.75,10.75,0,0,1,2.963,10.46A1.037,1.037,0,0,1,101.6,238.508Z"
            transform="translate(-74.977 -209.082)" fill="#8e9ab5" />
    </g>
</svg>
